Coordinates
version=1
nRows=21
nColumns=22
inDegrees=yes

Units are S.I. units (second, meters, Newtons, ...)
If the header above contains a line with 'inDegrees', this indicates whether rotational values are in degrees (yes) or radians (no).

endheader
time	pelvis_tilt	pelvis_list	pelvis_rotation	pelvis_tx	pelvis_ty	pelvis_tz	hip_flexion_r	hip_adduction_r	hip_rotation_r	knee_angle_r	ankle_angle_r	subtalar_angle_r	hip_flexion_l	hip_adduction_l	hip_rotation_l	knee_angle_l	ankle_angle_l	subtalar_angle_l	lumbar_extension	lumbar_bending	lumbar_rotation
      2.99000000	      1.88509543	      0.68110996	    -26.11246373	     -0.75164368	      1.00455785	     -0.24663713	     26.20675325	     -2.29408218	    -15.78440082	    -29.42046663	      7.07697335	      3.63427735	     -3.14649529	      4.48938240	    -14.74735178	    -13.46624060	     17.41909236	     -1.97732745	    -17.25142422	     -1.08047194	     -4.58185268
      3.00000000	      1.84788296	      0.64182569	    -26.36560525	     -0.74539297	      1.00358268	     -0.24364926	     26.36854298	     -2.11436885	    -17.21316371	    -27.81556152	      6.73911308	      3.90512594	     -3.68607107	      4.50419568	    -14.99880771	    -13.25904233	     17.76632055	     -1.92168396	    -17.21200544	     -0.97054652	     -4.57509552
      3.01000000	      1.82546136	      0.59210716	    -26.60659483	     -0.73904479	      1.00260325	     -0.24057061	     26.48087403	     -1.92154046	    -18.66508694	    -26.27154518	      6.43504574	      4.17790607	     -4.23538347	      4.51165225	    -15.24312908	    -13.08436401	     18.09386455	     -1.84054569	    -17.19039698	     -0.85555197	     -4.58197986
      3.02000000	      1.79831195	      0.53450293	    -26.82519375	     -0.73259262	      1.00158344	     -0.23740944	     26.56394836	     -1.71369318	    -20.12575712	    -24.80424143	      6.20984199	      4.42256475	     -4.76653982	      4.50155437	    -15.46447460	    -12.95861445	     18.43081913	     -1.74555735	    -17.16388000	     -0.72574994	     -4.60563242
      3.03000000	      1.72948712	      0.48746616	    -27.01248647	     -0.72606682	      1.00045594	     -0.23417208	     26.66506084	     -1.49002954	    -21.55387121	    -23.42804648	      6.05213135	      4.60503650	     -5.21885758	      4.46618081	    -15.66528324	    -12.91034392	     18.79381690	     -1.67132948	    -17.08701129	     -0.58115643	     -4.66700299
      3.04000000	      1.74911046	      0.38852037	    -27.19291805	     -0.71942612	      0.99947314	     -0.23081461	     26.62343790	     -1.25330996	    -22.93328685	    -22.15741523	      5.99766085	      4.79925986	     -5.79032877	      4.42402072	    -15.83116250	    -12.86433675	     19.11633869	     -1.51860388	    -17.12853990	     -0.43289140	     -4.69379897
      3.05000000	      1.71738974	      0.30717520	    -27.33823211	     -0.71272497	      0.99836912	     -0.22738590	     26.61432206	     -1.00418828	    -24.18238287	    -21.01120508	      6.00293048	      4.91037589	     -6.26259410	      4.35358247	    -15.98334273	    -12.91086993	     19.46704190	     -1.39947893	    -17.10646807	     -0.26910953	     -4.78236960
      3.06000000	      1.72761494	      0.19841321	    -27.46911382	     -0.70592794	      0.99732326	     -0.22385155	     26.52274610	     -0.74756415	    -25.29157473	    -20.00589661	      6.08125225	      4.96512286	     -6.77489199	      4.26888873	    -16.10956120	    -13.00411646	     19.78067574	     -1.23862938	    -17.14152216	     -0.09972202	     -4.84540488
      3.07000000	      1.73789177	      0.08787496	    -27.57293915	     -0.69903264	      0.99625221	     -0.22023629	     26.40507063	     -0.49243021	    -26.20035357	    -19.16222481	      6.20839005	      4.93384558	     -7.26358946	      4.16849994	    -16.21049656	    -13.16428667	     20.08842663	     -1.07474273	    -17.17038036	      0.07789930	     -4.93873247
      3.08000000	      1.74850569	     -0.02268015	    -27.63966138	     -0.69205116	      0.99515616	     -0.21656320	     26.25965252	     -0.24794650	    -26.89444567	    -18.48804528	      6.36103743	      4.81666711	     -7.72088183	      4.05072217	    -16.28276985	    -13.40002992	     20.40132580	     -0.91585341	    -17.19802952	      0.26649374	     -5.08184835
      3.09000000	      1.79199605	     -0.15153854	    -27.68355896	     -0.68494238	      0.99410804	     -0.21280317	     26.04510153	     -0.01473278	    -27.38354985	    -17.99539983	      6.52351027	      4.56611635	     -8.20630354	      3.92165833	    -16.31515000	    -13.67896428	     20.66209431	     -0.69930583	    -17.25742258	      0.46343155	     -5.21416123
      3.10000000	      1.82799271	     -0.27243311	    -27.68494833	     -0.67771357	      0.99302706	     -0.20899168	     25.81753512	      0.19151147	    -27.68147722	    -17.69176243	      6.65181357	      4.20783452	     -8.65061275	      3.77780119	    -16.31067605	    -14.03198520	     20.91439862	     -0.47573809	    -17.29452122	      0.67018350	     -5.38549955
      3.11000000	      1.86311169	     -0.39545069	    -27.64800435	     -0.67034992	      0.99194682	     -0.20511154	     25.56782159	      0.37443857	    -27.82266128	    -17.57859097	      6.71480967	      3.71706062	     -9.07259961	      3.61395640	    -16.26298266	    -14.44514039	     21.13733589	     -0.22202325	    -17.31759788	      0.88965944	     -5.56939517
      3.12000000	      1.89259313	     -0.51607923	    -27.58890447	     -0.66282082	      0.99087438	     -0.20114146	     25.30547795	      0.53681874	    -27.82358676	    -17.64304261	      6.67542963	      3.05404637	     -9.48452488	      3.43984542	    -16.18902659	    -14.88270909	     21.33056680	      0.08411726	    -17.30941369	      1.12562990	     -5.78249046
      3.13000000	      1.90329410	     -0.64510200	    -27.49819276	     -0.65515459	      0.98983225	     -0.19708303	     25.04220622	      0.68811192	    -27.75277600	    -17.86496104	      6.48677739	      2.24689919	     -9.86013172	      3.23023601	    -16.07490810	    -15.38155258	     21.47639067	      0.41662303	    -17.26694230	      1.38813699	     -5.99297472
      3.14000000	      1.87968955	     -0.80378552	    -27.38165503	     -0.64733426	      0.98884923	     -0.19293316	     24.78271875	      0.85347629	    -27.66486626	    -18.20791789	      6.11513624	      1.29701506	    -10.19952672	      2.96032885	    -15.92516237	    -15.93423671	     21.59086704	      0.76928181	    -17.18114448	      1.71210329	     -6.19466066
      3.15000000	      1.84686644	     -0.97713071	    -27.28287199	     -0.63939175	      0.98798488	     -0.18863226	     24.52934471	      1.02391148	    -27.52673068	    -18.66012215	      5.55943298	      0.08704635	    -10.54126424	      2.66872112	    -15.78228611	    -16.49521518	     21.63616480	      1.19835920	    -17.07320382	      2.05826952	     -6.40574111
      3.16000000	      1.78596443	     -1.18866106	    -27.20033653	     -0.63135996	      0.98726946	     -0.18420834	     24.29829767	      1.22084872	    -27.39803491	    -19.20172813	      4.87260233	     -1.26039655	    -10.85548148	      2.32223537	    -15.62725241	    -17.10691254	     21.59676451	      1.66536385	    -16.94291177	      2.45784225	     -6.54951410
      3.17000000	      1.70045458	     -1.43708176	    -27.17487420	     -0.62325611	      0.98674125	     -0.17961680	     24.09577473	      1.45496771	    -27.25771741	    -19.82035516	      4.14086835	     -2.71496146	    -11.15856327	      1.93905545	    -15.47256556	    -17.74401256	     21.44154140	      2.19724056	    -16.79475723	      2.90331125	     -6.61343233
      3.18000000	      1.58221573	     -1.73674715	    -27.21536364	     -0.61513328	      0.98640971	     -0.17485374	     23.92152542	      1.75406754	    -27.08063081	    -20.49702065	      3.49289527	     -4.13690300	    -11.42576115	      1.49601181	    -15.34904888	    -18.45090868	     21.20197582	      2.77193767	    -16.63757332	      3.41029172	     -6.59894046
      3.19000000	      1.43998644	     -2.07101594	    -27.35075874	     -0.60704235	      0.98628900	     -0.16989162	     23.77504771	      2.11751591	    -26.81585998	    -21.22342178	      3.00288801	     -5.42586895	    -11.65501865	      1.02179673	    -15.26209254	    -19.23036034	     20.85701315	      3.39993523	    -16.48018616	      3.94916515	     -6.48728818
